<?xml version="1.0" standalone="no"?><!DOCTYPE svg PUBLIC "-//W3C//DTD SVG 1.1//EN" "http://www.w3.org/Graphics/SVG/1.1/DTD/svg11.dtd"><svg t="1739586208329" class="icon" viewBox="0 0 1024 1024" version="1.1" xmlns="http://www.w3.org/2000/svg" p-id="6413" width="40" height="40" xmlns:xlink="http://www.w3.org/1999/xlink"><path d="M905.38666667 60.69333333H123.94666667c-30.82666667 0-55.78666667 24.96-55.78666667 55.78666667v781.33333333c0 30.82666667 24.96 55.78666667 55.78666667 55.78666667h781.44c30.82666667 0 55.78666667-24.96 55.78666667-55.78666667V116.48c0-30.82666667-24.96-55.78666667-55.78666667-55.78666667zM756.37333334 776.85333333c-12.90666667 12.8-34.02666667 12.48-47.36-0.85333333L556.26666667 623.25333333l-0.10666667 0.10666667c-36.16 26.66666667-80.74666667 42.56-129.17333333 42.34666667-120.64-0.42666667-218.77333333-98.77333333-219.30666667-219.52-0.42666667-120.85333333 97.06666667-218.45333333 217.70666667-218.02666667 120.64 0.42666667 218.77333333 98.77333333 219.2 219.52 0.21333333 48.32-15.46666667 92.8-41.81333333 128.85333333l152.74666666 152.85333334c13.33333333 13.33333333 13.76 34.56 0.85333334 47.46666666z" fill="#0B9E8B" p-id="6414"></path><path d="M600.85333334 447.57333333c0.42666667 96.64-77.65333333 174.72-174.08 174.4-96.53333333-0.32-175.04-78.93333333-175.36-175.68s77.65333333-174.72 174.08-174.4c96.53333333 0.32 175.04 78.93333333 175.36 175.68z" fill="#0B9E8B" p-id="6415"></path><path d="M497.81333334 508.16c0 1.81333333-0.64 3.94666667-2.45333334 3.94666667-1.81333333 0-2.45333333-2.13333333-2.45333333-3.94666667 0-1.81333333 0.74666667-3.94666667 2.45333333-3.94666667 1.81333333 0 2.45333333 2.24 2.45333334 3.94666667z m-2.45333334-3.73333333c-1.38666667 0-1.70666667 1.92-1.70666666 3.62666666 0 1.70666667 0.32 3.62666667 1.70666666 3.62666667 1.28 0 1.70666667-1.92 1.70666667-3.62666667 0-1.70666667-0.32-3.62666667-1.70666667-3.62666666zM501.44 506.45333333h0.32c1.38666667 0 2.45333333 1.06666667 2.45333334 2.56 0 1.81333333-1.49333333 3.09333333-3.2 3.09333334-0.53333333 0-1.17333333-0.10666667-1.81333334-0.32v-6.93333334c0-0.85333333 0-0.96-0.96-1.06666666v-0.10666667c0.64-0.10666667 1.28-0.32 1.49333334-0.42666667v3.94666667l1.70666666-0.74666667z m-1.6 3.84c0 0.21333333 0 0.32 0.10666667 0.53333334 0.10666667 0.32 0.64 0.85333333 1.6 0.85333333 1.28 0 2.02666667-0.96 2.02666667-2.34666667 0-1.28-0.85333333-2.34666667-2.13333334-2.34666666-0.64 0-1.17333333 0.10666667-1.49333333 0.32v2.98666666zM508.26666667 508.8c-0.32 0.10666667-0.42666667 0.21333333-0.74666667 0.21333333-1.17333333 0-2.13333333-0.85333333-2.13333333-2.24 0-1.28 0.96-2.56 2.34666667-2.56 1.38666667 0 2.34666667 1.38666667 2.34666666 3.09333334 0 2.34666667-1.28 3.84-2.88 4.58666666-0.74666667 0.32-1.28 0.32-1.6 0.32v-0.21333333c1.81333333-0.32 3.2-1.6 3.73333334-3.62666667l-1.06666667 0.42666667z m-2.13333333-2.45333333c0 1.06666667 0.64 2.02666667 1.81333333 2.02666666 0.53333333 0 1.17333333-0.21333333 1.49333333-0.53333333v-0.74666667c0-0.96-0.32-2.66666667-1.70666666-2.66666666-1.28 0-1.6 1.28-1.6 1.92zM515.52 510.93333333c-0.74666667 0.85333333-1.6 1.06666667-1.92 1.06666667-1.49333333 0-2.45333333-1.17333333-2.45333333-2.56 0-1.92 1.49333333-3.09333333 2.56-3.09333333s1.92 0.85333333 1.92 1.81333333c0 0.21333333 0 0.32-0.21333333 0.32s-1.81333333 0.21333333-3.62666667 0.21333333c0 1.92 1.17333333 2.66666667 2.02666667 2.66666667 0.42666667 0 0.85333333-0.10666667 1.6-0.74666667l0.10666666 0.32z m-3.62666666-2.45333333h2.66666666c0.32 0 0.32-0.10666667 0.32-0.21333333 0-0.74666667-0.53333333-1.38666667-1.49333333-1.38666667-0.64 0-1.28 0.53333333-1.49333333 1.6zM520.85333334 505.92c0 0.32-0.10666667 0.74666667-0.32 0.96 0 0.10666667-0.42666667 0.32-1.06666667 0.85333333 0.96 0.53333333 1.70666667 1.06666667 1.70666667 2.24 0 1.38666667-1.28 2.13333333-2.34666667 2.13333334-1.17333333 0-2.24-0.74666667-2.24-2.02666667 0-0.96 0.53333333-1.49333333 1.70666667-2.13333333-0.85333333-0.42666667-1.38666667-1.06666667-1.38666667-1.81333334 0-0.96 0.74666667-1.92 2.02666667-1.92 1.17333333 0 1.92 0.74666667 1.92 1.70666667z m-0.32 4.16c0-0.96-1.06666667-1.6-1.92-2.02666667-0.74666667 0.42666667-1.28 1.06666667-1.28 1.92 0 1.17333333 0.74666667 1.81333333 1.70666666 1.81333334 0.74666667 0 1.49333333-0.53333333 1.49333334-1.70666667z m-2.98666667-4.37333333c0 1.06666667 0.85333333 1.38666667 1.70666667 1.81333333 0.53333333-0.42666667 0.96-0.85333333 0.96-1.6 0-1.06666667-0.64-1.49333333-1.28-1.49333333-1.06666667 0-1.38666667 0.74666667-1.38666667 1.28zM525.01333334 506.45333333h0.32c1.38666667 0 2.45333333 1.06666667 2.45333333 2.56 0 1.81333333-1.49333333 3.09333333-3.2 3.09333334-0.53333333 0-1.17333333-0.10666667-1.81333333-0.32v-6.93333334c0-0.85333333 0-0.96-0.96-1.06666666v-0.10666667c0.64-0.10666667 1.28-0.32 1.49333333-0.42666667v3.94666667l1.70666667-0.74666667z m-1.6 3.84c0 0.21333333 0 0.32 0.10666666 0.53333334 0.10666667 0.32 0.64 0.85333333 1.6 0.85333333 1.28 0 2.02666667-0.96 2.02666667-2.34666667 0-1.28-0.85333333-2.34666667-2.13333333-2.34666666-0.64 0-1.17333333 0.10666667-1.49333334 0.32v2.98666666z" fill="#0B9E8B" p-id="6416"></path></svg>